<mxfile modified="2020-10-18T03:42:46.598Z" host="app.diagrams.net" agent="5.0 (Macintosh)" etag="pPnZ6SOrGfZjC2jI1XYu" version="13.8.0" type="github">
  <diagram id="WI9T0HZ2pTsCkuznbFz-" name="Page-1">
    <mxGraphModel dx="786" dy="466" grid="1" gridSize="10" guides="1" tooltips="1" connect="1" arrows="1" fold="1" page="1" pageScale="1" pageWidth="1169" pageHeight="827" math="0" shadow="0">
      <root>
        <mxCell id="0" />
        <mxCell id="1" parent="0" />
        <mxCell id="grp4hDzEuq2rJG33ILn6-11" style="edgeStyle=orthogonalEdgeStyle;curved=0;rounded=1;sketch=0;orthogonalLoop=1;jettySize=auto;html=1;fillColor=#dae8fc;strokeColor=#6c8ebf;" edge="1" parent="1" source="grp4hDzEuq2rJG33ILn6-1" target="grp4hDzEuq2rJG33ILn6-9">
          <mxGeometry relative="1" as="geometry" />
        </mxCell>
        <mxCell id="grp4hDzEuq2rJG33ILn6-12" style="edgeStyle=orthogonalEdgeStyle;curved=0;rounded=1;sketch=0;orthogonalLoop=1;jettySize=auto;html=1;exitX=1;exitY=0.5;exitDx=0;exitDy=0;entryX=0;entryY=0.5;entryDx=0;entryDy=0;" edge="1" parent="1" source="grp4hDzEuq2rJG33ILn6-1" target="grp4hDzEuq2rJG33ILn6-2">
          <mxGeometry relative="1" as="geometry" />
        </mxCell>
        <mxCell id="grp4hDzEuq2rJG33ILn6-13" style="edgeStyle=orthogonalEdgeStyle;curved=0;rounded=1;sketch=0;orthogonalLoop=1;jettySize=auto;html=1;exitX=1;exitY=0.5;exitDx=0;exitDy=0;" edge="1" parent="1" source="grp4hDzEuq2rJG33ILn6-1" target="grp4hDzEuq2rJG33ILn6-3">
          <mxGeometry relative="1" as="geometry" />
        </mxCell>
        <mxCell id="grp4hDzEuq2rJG33ILn6-1" value="微服务网关" style="ellipse;whiteSpace=wrap;html=1;" vertex="1" parent="1">
          <mxGeometry x="90" y="290" width="120" height="80" as="geometry" />
        </mxCell>
        <mxCell id="grp4hDzEuq2rJG33ILn6-14" style="edgeStyle=orthogonalEdgeStyle;curved=0;rounded=1;sketch=0;orthogonalLoop=1;jettySize=auto;html=1;entryX=0;entryY=0.5;entryDx=0;entryDy=0;" edge="1" parent="1" source="grp4hDzEuq2rJG33ILn6-2" target="grp4hDzEuq2rJG33ILn6-5">
          <mxGeometry relative="1" as="geometry" />
        </mxCell>
        <mxCell id="grp4hDzEuq2rJG33ILn6-15" style="edgeStyle=orthogonalEdgeStyle;curved=0;rounded=1;sketch=0;orthogonalLoop=1;jettySize=auto;html=1;exitX=1;exitY=0.5;exitDx=0;exitDy=0;entryX=0.04;entryY=0.64;entryDx=0;entryDy=0;entryPerimeter=0;" edge="1" parent="1" source="grp4hDzEuq2rJG33ILn6-2" target="grp4hDzEuq2rJG33ILn6-6">
          <mxGeometry relative="1" as="geometry" />
        </mxCell>
        <mxCell id="grp4hDzEuq2rJG33ILn6-2" value="业务服务A" style="ellipse;whiteSpace=wrap;html=1;" vertex="1" parent="1">
          <mxGeometry x="380" y="180" width="120" height="80" as="geometry" />
        </mxCell>
        <mxCell id="grp4hDzEuq2rJG33ILn6-16" style="edgeStyle=orthogonalEdgeStyle;curved=0;rounded=1;sketch=0;orthogonalLoop=1;jettySize=auto;html=1;exitX=1;exitY=0.5;exitDx=0;exitDy=0;" edge="1" parent="1" source="grp4hDzEuq2rJG33ILn6-3" target="grp4hDzEuq2rJG33ILn6-7">
          <mxGeometry relative="1" as="geometry">
            <mxPoint x="530" y="360" as="sourcePoint" />
          </mxGeometry>
        </mxCell>
        <mxCell id="grp4hDzEuq2rJG33ILn6-17" style="edgeStyle=orthogonalEdgeStyle;curved=0;rounded=1;sketch=0;orthogonalLoop=1;jettySize=auto;html=1;exitX=1;exitY=0.5;exitDx=0;exitDy=0;entryX=0;entryY=0.5;entryDx=0;entryDy=0;" edge="1" parent="1" source="grp4hDzEuq2rJG33ILn6-3" target="grp4hDzEuq2rJG33ILn6-6">
          <mxGeometry relative="1" as="geometry" />
        </mxCell>
        <mxCell id="grp4hDzEuq2rJG33ILn6-3" value="业务服务B" style="ellipse;whiteSpace=wrap;html=1;" vertex="1" parent="1">
          <mxGeometry x="380" y="360" width="120" height="80" as="geometry" />
        </mxCell>
        <mxCell id="grp4hDzEuq2rJG33ILn6-5" value="用户服务" style="ellipse;whiteSpace=wrap;html=1;" vertex="1" parent="1">
          <mxGeometry x="640" y="160" width="100" height="50" as="geometry" />
        </mxCell>
        <mxCell id="grp4hDzEuq2rJG33ILn6-6" value="订单服务" style="ellipse;whiteSpace=wrap;html=1;" vertex="1" parent="1">
          <mxGeometry x="640" y="260" width="100" height="50" as="geometry" />
        </mxCell>
        <mxCell id="grp4hDzEuq2rJG33ILn6-7" value="鉴权服务" style="ellipse;whiteSpace=wrap;html=1;" vertex="1" parent="1">
          <mxGeometry x="640" y="375" width="100" height="50" as="geometry" />
        </mxCell>
        <mxCell id="grp4hDzEuq2rJG33ILn6-19" style="edgeStyle=orthogonalEdgeStyle;curved=0;rounded=1;sketch=0;orthogonalLoop=1;jettySize=auto;html=1;" edge="1" parent="1" source="grp4hDzEuq2rJG33ILn6-9" target="grp4hDzEuq2rJG33ILn6-2">
          <mxGeometry relative="1" as="geometry" />
        </mxCell>
        <mxCell id="grp4hDzEuq2rJG33ILn6-20" style="edgeStyle=orthogonalEdgeStyle;curved=0;rounded=1;sketch=0;orthogonalLoop=1;jettySize=auto;html=1;exitX=1;exitY=0.5;exitDx=0;exitDy=0;entryX=0.5;entryY=0;entryDx=0;entryDy=0;strokeColor=#6c8ebf;fillColor=#dae8fc;" edge="1" parent="1" source="grp4hDzEuq2rJG33ILn6-9" target="grp4hDzEuq2rJG33ILn6-5">
          <mxGeometry relative="1" as="geometry" />
        </mxCell>
        <mxCell id="grp4hDzEuq2rJG33ILn6-21" style="edgeStyle=orthogonalEdgeStyle;curved=0;rounded=1;sketch=0;orthogonalLoop=1;jettySize=auto;html=1;strokeColor=#6c8ebf;fillColor=#dae8fc;" edge="1" parent="1" source="grp4hDzEuq2rJG33ILn6-9" target="grp4hDzEuq2rJG33ILn6-3">
          <mxGeometry relative="1" as="geometry" />
        </mxCell>
        <mxCell id="grp4hDzEuq2rJG33ILn6-9" value="&lt;div&gt;注册中心&lt;/div&gt;&lt;div&gt;etcd&lt;br&gt;&lt;/div&gt;" style="rounded=1;whiteSpace=wrap;html=1;sketch=0;" vertex="1" parent="1">
          <mxGeometry x="200" y="110" width="120" height="60" as="geometry" />
        </mxCell>
      </root>
    </mxGraphModel>
  </diagram>
</mxfile>
